<svg xmlns="http://www.w3.org/2000/svg" xmlns:xlink="http://www.w3.org/1999/xlink" width="500" zoomAndPan="magnify" viewBox="0 0 375 74.999997" height="100" preserveAspectRatio="xMidYMid meet" version="1.2"><defs><clipPath id="36471a8df3"><path d="M 7.5 8.496094 L 65.25 8.496094 L 65.25 66.246094 L 7.5 66.246094 Z M 7.5 8.496094 "/></clipPath></defs><g id="4b2790f489"><g clip-rule="nonzero" clip-path="url(#36471a8df3)"><path style=" stroke:none;fill-rule:evenodd;fill:#000000;fill-opacity:1;" d="M 14.019531 8.496094 L 58.730469 8.496094 C 62.332031 8.496094 65.25 11.414062 65.25 15.015625 C 65.25 18.617188 62.332031 21.535156 58.730469 21.535156 L 14.019531 21.535156 C 10.417969 21.535156 7.5 18.617188 7.5 15.015625 C 7.5 11.414062 10.417969 8.496094 14.019531 8.496094 Z M 52.210938 48.546875 C 52.210938 45.976562 50.125 43.890625 47.550781 43.890625 L 14.019531 43.890625 C 10.417969 43.890625 7.5 40.972656 7.5 37.371094 C 7.5 33.769531 10.417969 30.851562 14.019531 30.851562 L 54.074219 30.851562 C 60.246094 30.851562 65.25 35.855469 65.25 42.027344 L 65.25 55.070312 C 65.25 61.242188 60.246094 66.246094 54.074219 66.246094 L 14.019531 66.246094 C 10.417969 66.246094 7.5 63.328125 7.5 59.726562 C 7.5 56.125 10.417969 53.207031 14.019531 53.207031 L 47.550781 53.207031 C 50.125 53.207031 52.210938 51.121094 52.210938 48.546875 Z M 52.210938 48.546875 "/></g><g style="fill:#000000;fill-opacity:1;"><g transform="translate(71.514325, 61.597602)"><path style="stroke:none" d="M 21.53125 0 L 21.53125 -19.28125 L 1.65625 -52.5 L 6.90625 -52.5 L 23.84375 -24.15625 L 40.71875 -52.5 L 45.90625 -52.5 L 26.03125 -19.421875 L 26.03125 0 Z M 21.53125 0 "/></g></g><g style="fill:#000000;fill-opacity:1;"><g transform="translate(119.056912, 61.597602)"><path style="stroke:none" d="M 8.46875 0 L 8.46875 -52.5 L 12.75 -52.5 L 44.703125 -7.875 L 44.703125 -52.5 L 49.203125 -52.5 L 49.203125 0 L 44.921875 0 L 12.96875 -44.703125 L 12.96875 0 Z M 8.46875 0 "/></g></g><g style="fill:#000000;fill-opacity:1;"><g transform="translate(176.722919, 61.597602)"><path style="stroke:none" d="M 1.65625 0 L 23.40625 -52.5 L 27.75 -52.5 L 49.5 0 L 44.703125 0 L 39.21875 -13.203125 L 11.921875 -13.203125 L 6.53125 0 Z M 13.71875 -17.40625 L 37.5 -17.40625 L 25.578125 -46.28125 Z M 13.71875 -17.40625 "/></g></g><g style="fill:#000000;fill-opacity:1;"><g transform="translate(227.939929, 61.597602)"><path style="stroke:none" d="M 8.46875 0 L 8.46875 -52.5 L 25.125 -52.5 C 31.226562 -52.5 35.976562 -50.984375 39.375 -47.953125 C 42.769531 -44.929688 44.46875 -40.695312 44.46875 -35.25 C 44.46875 -29.800781 42.769531 -25.5625 39.375 -22.53125 C 35.976562 -19.507812 31.226562 -18 25.125 -18 L 13.046875 -18 L 13.046875 0 Z M 13.046875 -22.203125 L 25.046875 -22.203125 C 34.953125 -22.203125 39.90625 -26.523438 39.90625 -35.171875 C 39.90625 -43.828125 34.953125 -48.15625 25.046875 -48.15625 L 13.046875 -48.15625 Z M 13.046875 -22.203125 "/></g></g><g style="fill:#000000;fill-opacity:1;"><g transform="translate(275.932429, 61.597602)"><path style="stroke:none" d="M 25.34375 0.96875 C 21.34375 0.96875 17.851562 0.296875 14.875 -1.046875 C 11.90625 -2.398438 9.59375 -4.328125 7.9375 -6.828125 C 6.289062 -9.328125 5.394531 -12.25 5.25 -15.59375 L 9.75 -15.59375 C 10 -11.75 11.523438 -8.75 14.328125 -6.59375 C 17.128906 -4.445312 20.800781 -3.375 25.34375 -3.375 C 29.644531 -3.375 33.046875 -4.257812 35.546875 -6.03125 C 38.046875 -7.8125 39.296875 -10.226562 39.296875 -13.28125 C 39.296875 -16.03125 38.144531 -18.265625 35.84375 -19.984375 C 33.550781 -21.710938 29.753906 -23.148438 24.453125 -24.296875 C 18.003906 -25.796875 13.328125 -27.71875 10.421875 -30.0625 C 7.523438 -32.414062 6.078125 -35.570312 6.078125 -39.53125 C 6.078125 -43.726562 7.675781 -47.097656 10.875 -49.640625 C 14.070312 -52.191406 18.472656 -53.46875 24.078125 -53.46875 C 29.878906 -53.46875 34.441406 -52.066406 37.765625 -49.265625 C 41.085938 -46.472656 42.847656 -42.550781 43.046875 -37.5 L 38.546875 -37.5 C 38.347656 -41.195312 36.984375 -44.054688 34.453125 -46.078125 C 31.929688 -48.109375 28.472656 -49.125 24.078125 -49.125 C 19.828125 -49.125 16.523438 -48.25 14.171875 -46.5 C 11.828125 -44.75 10.65625 -42.425781 10.65625 -39.53125 C 10.65625 -36.925781 11.765625 -34.757812 13.984375 -33.03125 C 16.210938 -31.3125 20.078125 -29.828125 25.578125 -28.578125 C 32.222656 -27.023438 36.945312 -25.035156 39.75 -22.609375 C 42.550781 -20.179688 43.953125 -17.09375 43.953125 -13.34375 C 43.953125 -8.945312 42.273438 -5.460938 38.921875 -2.890625 C 35.578125 -0.316406 31.050781 0.96875 25.34375 0.96875 Z M 25.34375 0.96875 "/></g></g><g style="fill:#000000;fill-opacity:1;"><g transform="translate(325.199743, 61.597602)"><path style="stroke:none" d="M 8.46875 0 L 8.46875 -52.5 L 39.375 -52.5 L 39.375 -48.21875 L 13.046875 -48.21875 L 13.046875 -28.875 L 37.421875 -28.875 L 37.421875 -24.671875 L 13.046875 -24.671875 L 13.046875 -4.28125 L 40.203125 -4.28125 L 40.203125 0 Z M 8.46875 0 "/></g></g></g></svg>